# xmcd
#
# Track frame offsets:
#	150
#	9591
#	20127
#	30445
#
# Disc length: 509 seconds
#
# Revision: 0
# Processed by: cddbd v1.5.2PL0 Copyright (c) Steve Scherf et al.
# Submitted via: EZCDAudioConverter 2.0.5.1
#
DISCID=2501fb04
DTITLE=The Ventures - French Sixties EP Collection - CD 5 - Penetration, Pipel
DTITLE=ine
DYEAR=2005
DGENRE=Instrumental
TTITLE0=Penetration
TTITLE1=Scratch
TTITLE2=Pipeline
TTITLE3=Ram-Bunk-Shush
EXTD=
EXTT0=
EXTT1=
EXTT2=
EXTT3=
PLAYORDER=
